# xmcd
#
# Track frame offsets: 
#        182
#        24185
#        35637
#        47875
#        60785
#        75492
#        86545
#        99902
#        123945
#        145182
#
# Disc length: 2078 seconds
#
# Revision: 2
# Processed by: cddbd v1.5.2PL0 Copyright (c) Steve Scherf et al.
# Submitted via: ExactAudioCopy v1.1
#
DISCID=6d081c0a
DTITLE=Townes Van Zandt - Townes Van Zandt
DYEAR=1989
DGENRE=Folk
TTITLE0=For the Sake of the Song
TTITLE1=Columbine
TTITLE2=Waiting Around to Die
TTITLE3=Don't Take it too Bad
TTITLE4=Colorado Girl
TTITLE5=Lungs
TTITLE6=I'll be Here in the Morning
TTITLE7=Fare Thee Well, Miss Carousel
TTITLE8=(Quicksilver Daydreadms of) Maria
TTITLE9=None But the Rain
EXTD=
EXTT0=\n
EXTT1=
EXTT2=
EXTT3=
EXTT4=
EXTT5=
EXTT6=
EXTT7=
EXTT8=
EXTT9=
PLAYORDER=
